Coordinates
version=1
nRows=16
nColumns=22
inDegrees=yes

Units are S.I. units (second, meters, Newtons, ...)
If the header above contains a line with 'inDegrees', this indicates whether rotational values are in degrees (yes) or radians (no).

endheader
time	pelvis_tilt	pelvis_list	pelvis_rotation	pelvis_tx	pelvis_ty	pelvis_tz	hip_flexion_r	hip_adduction_r	hip_rotation_r	knee_angle_r	ankle_angle_r	subtalar_angle_r	hip_flexion_l	hip_adduction_l	hip_rotation_l	knee_angle_l	ankle_angle_l	subtalar_angle_l	lumbar_extension	lumbar_bending	lumbar_rotation
      3.06000000	     -0.93644303	     -1.84934550	     16.84780765	     -0.49502550	      0.94764809	      0.29725947	     29.56844994	     -0.72735563	      1.09690203	    -48.45536433	      9.27780944	      3.85251520	      6.46981174	      7.86611963	     14.11344444	    -21.29899091	     11.81445816	    -13.14983300	     -7.49128878	      1.73881918	     -3.89565109
      3.07000000	     -0.87260816	     -1.86067580	     17.42043808	     -0.48746482	      0.94714879	      0.29418952	     29.86307146	     -0.58347421	      1.49308021	    -46.23829234	      9.15013225	      4.03533253	      5.77206072	      7.84976825	     14.62327972	    -21.17442028	     12.23881958	    -12.97024647	     -7.49699490	      1.75345526	     -4.18511825
      3.08000000	     -0.79346053	     -1.84680234	     17.96326672	     -0.47985108	      0.94657108	      0.29115623	     30.04937293	     -0.45297001	      1.94025144	    -43.90396717	      9.05893231	      4.30386874	      5.06970838	      7.84932208	     15.12870126	    -21.09108964	     12.64433027	    -12.74806349	     -7.53174674	      1.73746589	     -4.42353242
      3.09000000	     -0.76051067	     -1.87110949	     18.52253601	     -0.47222909	      0.94576649	      0.28806408	     30.21495172	     -0.33318218	      2.34454976	    -41.46945757	      8.96239704	      4.49799318	      4.47164437	      7.83196782	     15.63307164	    -21.09398951	     13.07625669	    -12.72080673	     -7.49978536	      1.75667000	     -4.68106950
      3.10000000	     -0.69952168	     -1.87654247	     19.06937390	     -0.46453041	      0.94490633	      0.28496826	     30.26198933	     -0.23960676	      2.73613119	    -38.94169272	      8.93755168	      4.72077410	      3.84729044	      7.82229716	     16.14727162	    -21.12560551	     13.49285986	    -12.69602942	     -7.50564282	      1.75982719	     -4.91133859
      3.11000000	     -0.64072762	     -1.87846508	     19.60103328	     -0.45675889	      0.94392597	      0.28186207	     30.24010071	     -0.17045343	      3.09357183	    -36.35148270	      8.97593725	      4.94242300	      3.23891353	      7.81729932	     16.66381024	    -21.19871902	     13.90685644	    -12.70605994	     -7.50887519	      1.75823029	     -5.12157518
      3.12000000	     -0.56283309	     -1.86284966	     20.12343151	     -0.44890406	      0.94289097	      0.27874139	     30.12639203	     -0.13011532	      3.41885751	    -33.72002993	      9.07964120	      5.20026350	      2.60225109	      7.81696631	     17.18289078	    -21.27943773	     14.29243667	    -12.72265894	     -7.53930609	      1.74080022	     -5.29568070
      3.13000000	     -0.52525756	     -1.89204991	     20.66511960	     -0.44100889	      0.94166033	      0.27557099	     30.01777800	     -0.09879099	      3.64159130	    -31.08328018	      9.19468880	      5.37269555	      2.05522467	      7.78662764	     17.69035322	    -21.43010567	     14.74701210	    -12.81702659	     -7.50573519	      1.76373113	     -5.51300605
      3.14000000	     -0.45534036	     -1.90045790	     21.19132251	     -0.43302795	      0.94042577	      0.27237251	     29.81820023	     -0.08718438	      3.83267377	    -28.45945026	      9.34095684	      5.58059791	      1.45328834	      7.75790554	     18.19993905	    -21.56803082	     15.15725185	    -12.89981930	     -7.51669552	      1.77978876	     -5.69787063
      3.15000000	     -0.38879215	     -1.90612086	     21.69395656	     -0.42495307	      0.93913079	      0.26918359	     29.59213088	     -0.07983989	      4.00610498	    -25.90494830	      9.51177538	      5.84216019	      0.83673948	      7.71852992	     18.68446278	    -21.68349142	     15.54349180	    -12.98170485	     -7.52503675	      1.79056328	     -5.85278347
      3.16000000	     -0.38772581	     -1.96575106	     22.21182939	     -0.41687240	      0.93764220	      0.26595235	     29.43901306	     -0.06841165	      4.10749968	    -23.46247581	      9.63196004	      6.02375489	      0.32780773	      7.64782485	     19.15078784	    -21.84114279	     15.98793684	    -13.09831415	     -7.44169084	      1.84102316	     -6.02225421
      3.17000000	     -0.31577176	     -1.96088082	     22.69972565	     -0.40870131	      0.93628286	      0.26270017	     29.17375237	     -0.08779966	      4.20393808	    -21.15413492	      9.78926005	      6.33916745	     -0.30907132	      7.59409639	     19.54964474	    -21.94430338	     16.33136935	    -13.18733045	     -7.46724861	      1.85887605	     -6.19652316
      3.18000000	     -0.32188343	     -2.00768776	     23.19272735	     -0.40051948	      0.93474695	      0.25941839	     29.02261961	     -0.10209329	      4.23161936	    -19.05371475	      9.89008855	      6.56437357	     -0.83762441	      7.51239891	     19.90448294	    -22.06423163	     16.71308935	    -13.30329430	     -7.38761473	      1.90787266	     -6.39023016
      3.19000000	     -0.32603819	     -2.04363638	     23.65157242	     -0.39226407	      0.93321848	      0.25613269	     28.88419953	     -0.11691964	      4.23719690	    -17.19264165	     10.01971466	      6.81741421	     -1.39764961	      7.42975666	     20.22081342	    -22.14520981	     17.03771269	    -13.41810038	     -7.31774737	      1.95016766	     -6.53968821
      3.20000000	     -0.37636550	     -2.09532205	     24.09020551	     -0.38395406	      0.93161897	      0.25283983	     28.83808363	     -0.13170166	      4.17802819	    -15.62765208	     10.12364251	      7.00664262	     -1.91626161	      7.33765360	     20.46753538	    -22.20381235	     17.35119397	    -13.53573681	     -7.19057702	      1.99471636	     -6.70014507
      3.21000000	     -0.44060554	     -2.15191801	     24.50148561	     -0.37556153	      0.93002139	      0.24955190	     28.84873472	     -0.13713952	      4.04498765	    -14.38217845	     10.21612067	      7.15414955	     -2.43504907	      7.23561066	     20.67709942	    -22.24065796	     17.64027197	    -13.64599461	     -7.04807385	      2.04015146	     -6.83619182
